<mxfile host="Electron" modified="2024-01-10T14:07:32.210Z" agent="Mozilla/5.0 (Macintosh; Intel Mac OS X 10_15_7) AppleWebKit/537.36 (KHTML, like Gecko) draw.io/22.1.18 Chrome/120.0.6099.199 Electron/28.1.2 Safari/537.36" etag="8C8ySntyqJO7CGqiUDqJ" version="22.1.18" type="device">
  <diagram id="R2lEEEUBdFMjLlhIrx00" name="terraform-aws-vslurm">
    <mxGraphModel dx="1114" dy="674" grid="1" gridSize="10" guides="1" tooltips="1" connect="1" arrows="1" fold="1" page="1" pageScale="1" pageWidth="1100" pageHeight="850" background="#ffffff" math="0" shadow="0" extFonts="Permanent Marker^https://fonts.googleapis.com/css?family=Permanent+Marker">
      <root>
        <mxCell id="0" />
        <mxCell id="1" style="locked=1;" parent="0" />
        <mxCell id="nZ1ceCBih_SGFWJZSbdT-25" value="" style="swimlane;fontStyle=0;childLayout=stackLayout;horizontal=1;startSize=30;horizontalStack=0;resizeParent=1;resizeParentMax=0;resizeLast=0;collapsible=1;marginBottom=0;whiteSpace=wrap;html=1;fillColor=default;" vertex="1" parent="1">
          <mxGeometry x="860" y="425" width="140" height="228.9473684210526" as="geometry" />
        </mxCell>
        <mxCell id="nZ1ceCBih_SGFWJZSbdT-27" value="slurm" style="text;strokeColor=none;fillColor=default;align=left;verticalAlign=middle;spacingLeft=4;spacingRight=4;overflow=hidden;points=[[0,0.5],[1,0.5]];portConstraint=eastwest;rotatable=0;whiteSpace=wrap;html=1;fontColor=#ffffff;" vertex="1" parent="nZ1ceCBih_SGFWJZSbdT-25">
          <mxGeometry y="30" width="140" height="30" as="geometry" />
        </mxCell>
        <mxCell id="nZ1ceCBih_SGFWJZSbdT-28" value="slurm-perlapi" style="text;strokeColor=none;fillColor=default;align=left;verticalAlign=middle;spacingLeft=4;spacingRight=4;overflow=hidden;points=[[0,0.5],[1,0.5]];portConstraint=eastwest;rotatable=0;whiteSpace=wrap;html=1;fontColor=#ffffff;" vertex="1" parent="nZ1ceCBih_SGFWJZSbdT-25">
          <mxGeometry y="60" width="140" height="30" as="geometry" />
        </mxCell>
        <mxCell id="nZ1ceCBih_SGFWJZSbdT-29" value="slurm-devel" style="text;strokeColor=none;fillColor=default;align=left;verticalAlign=middle;spacingLeft=4;spacingRight=4;overflow=hidden;points=[[0,0.5],[1,0.5]];portConstraint=eastwest;rotatable=0;whiteSpace=wrap;html=1;fontColor=#ffffff;" vertex="1" parent="nZ1ceCBih_SGFWJZSbdT-25">
          <mxGeometry y="90" width="140" height="34.73684210526316" as="geometry" />
        </mxCell>
        <mxCell id="nZ1ceCBih_SGFWJZSbdT-30" value="slurm-slurmd" style="text;strokeColor=none;fillColor=default;align=left;verticalAlign=middle;spacingLeft=4;spacingRight=4;overflow=hidden;points=[[0,0.5],[1,0.5]];portConstraint=eastwest;rotatable=0;whiteSpace=wrap;html=1;fontColor=#ffffff;" vertex="1" parent="nZ1ceCBih_SGFWJZSbdT-25">
          <mxGeometry y="124.73684210526315" width="140" height="34.73684210526316" as="geometry" />
        </mxCell>
        <mxCell id="nZ1ceCBih_SGFWJZSbdT-31" value="slurm-pam_slurm" style="text;strokeColor=none;fillColor=default;align=left;verticalAlign=middle;spacingLeft=4;spacingRight=4;overflow=hidden;points=[[0,0.5],[1,0.5]];portConstraint=eastwest;rotatable=0;whiteSpace=wrap;html=1;fontColor=#ffffff;" vertex="1" parent="nZ1ceCBih_SGFWJZSbdT-25">
          <mxGeometry y="159.4736842105263" width="140" height="34.73684210526316" as="geometry" />
        </mxCell>
        <mxCell id="nZ1ceCBih_SGFWJZSbdT-32" value="slurm-contribs" style="text;strokeColor=none;fillColor=default;align=left;verticalAlign=middle;spacingLeft=4;spacingRight=4;overflow=hidden;points=[[0,0.5],[1,0.5]];portConstraint=eastwest;rotatable=0;whiteSpace=wrap;html=1;fontColor=#ffffff;" vertex="1" parent="nZ1ceCBih_SGFWJZSbdT-25">
          <mxGeometry y="194.21052631578945" width="140" height="34.73684210526316" as="geometry" />
        </mxCell>
        <mxCell id="wTs9MbMgU3VnBsxGeB7g-48" value="key" style="" parent="0" />
        <mxCell id="wTs9MbMgU3VnBsxGeB7g-51" value="Key" style="swimlane;fontStyle=0;childLayout=stackLayout;horizontal=1;startSize=30;horizontalStack=0;resizeParent=1;resizeParentMax=0;resizeLast=0;collapsible=1;marginBottom=0;whiteSpace=wrap;html=1;movable=1;resizable=1;rotatable=1;deletable=1;editable=1;locked=0;connectable=1;" parent="wTs9MbMgU3VnBsxGeB7g-48" vertex="1">
          <mxGeometry x="10" y="10" width="250" height="180" as="geometry" />
        </mxCell>
        <mxCell id="wTs9MbMgU3VnBsxGeB7g-52" value="Pre-existing resource" style="text;strokeColor=none;fillColor=none;align=left;verticalAlign=middle;spacingLeft=4;spacingRight=4;overflow=hidden;points=[[0,0.5],[1,0.5]];portConstraint=eastwest;rotatable=1;whiteSpace=wrap;html=1;movable=1;resizable=1;deletable=1;editable=1;locked=0;connectable=1;" parent="wTs9MbMgU3VnBsxGeB7g-51" vertex="1">
          <mxGeometry y="30" width="250" height="30" as="geometry" />
        </mxCell>
        <mxCell id="wTs9MbMgU3VnBsxGeB7g-53" value="Provisioned resource" style="text;strokeColor=none;fillColor=none;align=left;verticalAlign=middle;spacingLeft=4;spacingRight=4;overflow=hidden;points=[[0,0.5],[1,0.5]];portConstraint=eastwest;rotatable=1;whiteSpace=wrap;html=1;movable=1;resizable=1;deletable=1;editable=1;locked=0;connectable=1;" parent="wTs9MbMgU3VnBsxGeB7g-51" vertex="1">
          <mxGeometry y="60" width="250" height="30" as="geometry" />
        </mxCell>
        <mxCell id="wTs9MbMgU3VnBsxGeB7g-55" value="Security group" style="text;strokeColor=none;fillColor=none;align=left;verticalAlign=middle;spacingLeft=4;spacingRight=4;overflow=hidden;points=[[0,0.5],[1,0.5]];portConstraint=eastwest;rotatable=0;whiteSpace=wrap;html=1;" parent="wTs9MbMgU3VnBsxGeB7g-51" vertex="1">
          <mxGeometry y="90" width="250" height="30" as="geometry" />
        </mxCell>
        <mxCell id="wTs9MbMgU3VnBsxGeB7g-60" value="" style="endArrow=classic;html=1;rounded=0;movable=1;resizable=1;rotatable=1;deletable=1;editable=1;locked=0;connectable=1;strokeWidth=2;endSize=8;startSize=8;dashed=1;" parent="wTs9MbMgU3VnBsxGeB7g-51" edge="1">
          <mxGeometry width="50" height="50" relative="1" as="geometry">
            <mxPoint x="172.5" y="135" as="sourcePoint" />
            <mxPoint x="207.5" y="135" as="targetPoint" />
          </mxGeometry>
        </mxCell>
        <mxCell id="wTs9MbMgU3VnBsxGeB7g-56" value="SSH connection (config)" style="text;strokeColor=none;fillColor=none;align=left;verticalAlign=middle;spacingLeft=4;spacingRight=4;overflow=hidden;points=[[0,0.5],[1,0.5]];portConstraint=eastwest;rotatable=1;whiteSpace=wrap;html=1;movable=1;resizable=1;deletable=1;editable=1;locked=0;connectable=1;dashed=1;" parent="wTs9MbMgU3VnBsxGeB7g-51" vertex="1">
          <mxGeometry y="120" width="250" height="30" as="geometry" />
        </mxCell>
        <mxCell id="wTs9MbMgU3VnBsxGeB7g-61" value="" style="endArrow=classic;html=1;rounded=0;dashed=1;movable=1;resizable=1;rotatable=1;deletable=1;editable=1;locked=0;connectable=1;endSize=8;startSize=8;" parent="wTs9MbMgU3VnBsxGeB7g-51" edge="1">
          <mxGeometry width="50" height="50" relative="1" as="geometry">
            <mxPoint x="172.5" y="165" as="sourcePoint" />
            <mxPoint x="207.5" y="165" as="targetPoint" />
          </mxGeometry>
        </mxCell>
        <mxCell id="wTs9MbMgU3VnBsxGeB7g-57" value="SSH connection (usage)" style="text;strokeColor=none;fillColor=none;align=left;verticalAlign=middle;spacingLeft=4;spacingRight=4;overflow=hidden;points=[[0,0.5],[1,0.5]];portConstraint=eastwest;rotatable=1;whiteSpace=wrap;html=1;movable=1;resizable=1;deletable=1;editable=1;locked=0;connectable=1;" parent="wTs9MbMgU3VnBsxGeB7g-51" vertex="1">
          <mxGeometry y="150" width="250" height="30" as="geometry" />
        </mxCell>
        <mxCell id="wTs9MbMgU3VnBsxGeB7g-58" value="" style="rounded=0;whiteSpace=wrap;html=1;fillColor=#f5f5f5;fontColor=#333333;strokeColor=#666666;movable=1;resizable=1;rotatable=1;deletable=1;editable=1;locked=0;connectable=1;" parent="wTs9MbMgU3VnBsxGeB7g-48" vertex="1">
          <mxGeometry x="160" y="50" width="80" height="10" as="geometry" />
        </mxCell>
        <mxCell id="wTs9MbMgU3VnBsxGeB7g-59" value="" style="rounded=0;whiteSpace=wrap;html=1;movable=1;resizable=1;rotatable=1;deletable=1;editable=1;locked=0;connectable=1;" parent="wTs9MbMgU3VnBsxGeB7g-48" vertex="1">
          <mxGeometry x="160" y="80" width="80" height="10" as="geometry" />
        </mxCell>
        <mxCell id="wTs9MbMgU3VnBsxGeB7g-63" value="" style="rounded=0;whiteSpace=wrap;html=1;movable=1;resizable=1;rotatable=1;deletable=1;editable=1;locked=0;connectable=1;dashed=1;" parent="wTs9MbMgU3VnBsxGeB7g-48" vertex="1">
          <mxGeometry x="160" y="110" width="80" height="10" as="geometry" />
        </mxCell>
        <mxCell id="wTs9MbMgU3VnBsxGeB7g-49" value="title" style="locked=1;" parent="0" />
        <mxCell id="wTs9MbMgU3VnBsxGeB7g-64" value="&lt;h1&gt;&lt;font&gt;vslurm&lt;/font&gt;&lt;/h1&gt;" style="text;html=1;align=center;verticalAlign=middle;resizable=0;points=[];autosize=1;strokeColor=none;fillColor=none;fontFamily=Helvetica;" parent="wTs9MbMgU3VnBsxGeB7g-49" vertex="1">
          <mxGeometry x="630" width="110" height="80" as="geometry" />
        </mxCell>
        <mxCell id="wTs9MbMgU3VnBsxGeB7g-50" value="pre-existing resources" style="locked=1;" parent="0" />
        <mxCell id="wTs9MbMgU3VnBsxGeB7g-70" value="Local" style="swimlane;fontStyle=1;childLayout=stackLayout;horizontal=1;startSize=30;horizontalStack=0;resizeParent=1;resizeParentMax=0;resizeLast=0;collapsible=1;marginBottom=0;whiteSpace=wrap;html=1;fillColor=#f5f5f5;fontColor=#333333;strokeColor=#666666;perimeterSpacing=0;strokeWidth=1;swimlaneLine=1;rounded=0;shadow=0;glass=0;" parent="wTs9MbMgU3VnBsxGeB7g-50" vertex="1">
          <mxGeometry x="60" y="270" width="140" height="90" as="geometry">
            <mxRectangle x="60" y="270" width="70" height="30" as="alternateBounds" />
          </mxGeometry>
        </mxCell>
        <mxCell id="wTs9MbMgU3VnBsxGeB7g-71" value="Terraform" style="text;strokeColor=none;fillColor=#f5f5f5;align=left;verticalAlign=middle;spacingLeft=4;spacingRight=4;overflow=hidden;points=[[0,0.5],[1,0.5]];portConstraint=eastwest;rotatable=0;whiteSpace=wrap;html=1;fontColor=#333333;" parent="wTs9MbMgU3VnBsxGeB7g-70" vertex="1">
          <mxGeometry y="30" width="140" height="30" as="geometry" />
        </mxCell>
        <mxCell id="wTs9MbMgU3VnBsxGeB7g-72" value="AWS" style="text;strokeColor=none;fillColor=#f5f5f5;align=left;verticalAlign=middle;spacingLeft=4;spacingRight=4;overflow=hidden;points=[[0,0.5],[1,0.5]];portConstraint=eastwest;rotatable=0;whiteSpace=wrap;html=1;fontColor=#333333;" parent="wTs9MbMgU3VnBsxGeB7g-70" vertex="1">
          <mxGeometry y="60" width="140" height="30" as="geometry" />
        </mxCell>
        <mxCell id="wTs9MbMgU3VnBsxGeB7g-66" value="Public Cloud: AWS" style="text;html=1;strokeColor=#666666;fillColor=#f5f5f5;align=left;verticalAlign=bottom;whiteSpace=wrap;rounded=0;fontStyle=1;fontColor=#333333;labelPosition=center;verticalLabelPosition=top;movable=1;resizable=1;rotatable=1;deletable=1;editable=1;locked=0;connectable=1;" parent="wTs9MbMgU3VnBsxGeB7g-50" vertex="1">
          <mxGeometry x="280" y="90" width="810" height="750" as="geometry" />
        </mxCell>
        <mxCell id="wTs9MbMgU3VnBsxGeB7g-67" value="VPC" style="text;html=1;strokeColor=#666666;fillColor=#f5f5f5;align=left;verticalAlign=bottom;whiteSpace=wrap;rounded=0;fontStyle=1;fontColor=#333333;labelPosition=center;verticalLabelPosition=top;" parent="wTs9MbMgU3VnBsxGeB7g-50" vertex="1">
          <mxGeometry x="290" y="120" width="790" height="710" as="geometry" />
        </mxCell>
        <mxCell id="wTs9MbMgU3VnBsxGeB7g-68" value="Subnet" style="text;html=1;strokeColor=#666666;fillColor=#f5f5f5;align=left;verticalAlign=bottom;whiteSpace=wrap;rounded=0;fontStyle=1;fontColor=#333333;labelPosition=center;verticalLabelPosition=top;" parent="wTs9MbMgU3VnBsxGeB7g-50" vertex="1">
          <mxGeometry x="300" y="150" width="770" height="670" as="geometry" />
        </mxCell>
        <mxCell id="wTs9MbMgU3VnBsxGeB7g-110" value="provisioned SGs" style="locked=1;" parent="0" />
        <mxCell id="wTs9MbMgU3VnBsxGeB7g-111" value="Security Group" style="text;html=1;align=left;verticalAlign=bottom;whiteSpace=wrap;rounded=0;fontStyle=1;labelPosition=center;verticalLabelPosition=top;strokeColor=default;fillColor=default;dashed=1;" parent="wTs9MbMgU3VnBsxGeB7g-110" vertex="1">
          <mxGeometry x="310" y="180" width="750" height="630" as="geometry" />
        </mxCell>
        <mxCell id="wTs9MbMgU3VnBsxGeB7g-112" value="Security Group: nodes" style="text;html=1;align=left;verticalAlign=bottom;whiteSpace=wrap;rounded=0;fontStyle=1;labelPosition=center;verticalLabelPosition=top;strokeColor=default;fillColor=default;dashed=1;" parent="wTs9MbMgU3VnBsxGeB7g-110" vertex="1">
          <mxGeometry x="830" y="480" width="220" height="320" as="geometry" />
        </mxCell>
        <mxCell id="wTs9MbMgU3VnBsxGeB7g-73" value="provisioned instances" style="locked=1;" parent="0" />
        <mxCell id="wTs9MbMgU3VnBsxGeB7g-76" value="&lt;b&gt;Instance: configurer&lt;/b&gt;" style="swimlane;fontStyle=0;childLayout=stackLayout;horizontal=1;startSize=30;horizontalStack=0;resizeParent=1;resizeParentMax=0;resizeLast=0;collapsible=1;marginBottom=0;whiteSpace=wrap;html=1;strokeWidth=1;" parent="wTs9MbMgU3VnBsxGeB7g-73" vertex="1">
          <mxGeometry x="330" y="200" width="140" height="60" as="geometry" />
        </mxCell>
        <mxCell id="wTs9MbMgU3VnBsxGeB7g-77" value="Ansible" style="text;strokeColor=none;fillColor=none;align=left;verticalAlign=middle;spacingLeft=4;spacingRight=4;overflow=hidden;points=[[0,0.5],[1,0.5]];portConstraint=eastwest;rotatable=0;whiteSpace=wrap;html=1;" parent="wTs9MbMgU3VnBsxGeB7g-76" vertex="1">
          <mxGeometry y="30" width="140" height="30" as="geometry" />
        </mxCell>
        <mxCell id="wTs9MbMgU3VnBsxGeB7g-78" value="&lt;b&gt;Instance: login&lt;/b&gt;" style="swimlane;fontStyle=0;childLayout=stackLayout;horizontal=1;startSize=30;horizontalStack=0;resizeParent=1;resizeParentMax=0;resizeLast=0;collapsible=1;marginBottom=0;whiteSpace=wrap;html=1;" parent="wTs9MbMgU3VnBsxGeB7g-73" vertex="1">
          <mxGeometry x="380" y="608.95" width="140" height="180" as="geometry" />
        </mxCell>
        <mxCell id="wTs9MbMgU3VnBsxGeB7g-79" value="munge" style="text;strokeColor=none;fillColor=none;align=left;verticalAlign=middle;spacingLeft=4;spacingRight=4;overflow=hidden;points=[[0,0.5],[1,0.5]];portConstraint=eastwest;rotatable=0;whiteSpace=wrap;html=1;" parent="wTs9MbMgU3VnBsxGeB7g-78" vertex="1">
          <mxGeometry y="30" width="140" height="30" as="geometry" />
        </mxCell>
        <mxCell id="wTs9MbMgU3VnBsxGeB7g-80" value="slurm" style="text;strokeColor=none;fillColor=none;align=left;verticalAlign=middle;spacingLeft=4;spacingRight=4;overflow=hidden;points=[[0,0.5],[1,0.5]];portConstraint=eastwest;rotatable=0;whiteSpace=wrap;html=1;" parent="wTs9MbMgU3VnBsxGeB7g-78" vertex="1">
          <mxGeometry y="60" width="140" height="30" as="geometry" />
        </mxCell>
        <mxCell id="wTs9MbMgU3VnBsxGeB7g-81" value="slurm-perlapi" style="text;strokeColor=none;fillColor=none;align=left;verticalAlign=middle;spacingLeft=4;spacingRight=4;overflow=hidden;points=[[0,0.5],[1,0.5]];portConstraint=eastwest;rotatable=0;whiteSpace=wrap;html=1;" parent="wTs9MbMgU3VnBsxGeB7g-78" vertex="1">
          <mxGeometry y="90" width="140" height="30" as="geometry" />
        </mxCell>
        <mxCell id="wTs9MbMgU3VnBsxGeB7g-82" value="slurm-devel" style="text;strokeColor=none;fillColor=none;align=left;verticalAlign=middle;spacingLeft=4;spacingRight=4;overflow=hidden;points=[[0,0.5],[1,0.5]];portConstraint=eastwest;rotatable=0;whiteSpace=wrap;html=1;" parent="wTs9MbMgU3VnBsxGeB7g-78" vertex="1">
          <mxGeometry y="120" width="140" height="30" as="geometry" />
        </mxCell>
        <mxCell id="wTs9MbMgU3VnBsxGeB7g-83" value="slurm-contribs" style="text;strokeColor=none;fillColor=none;align=left;verticalAlign=middle;spacingLeft=4;spacingRight=4;overflow=hidden;points=[[0,0.5],[1,0.5]];portConstraint=eastwest;rotatable=0;whiteSpace=wrap;html=1;" parent="wTs9MbMgU3VnBsxGeB7g-78" vertex="1">
          <mxGeometry y="150" width="140" height="30" as="geometry" />
        </mxCell>
        <mxCell id="wTs9MbMgU3VnBsxGeB7g-84" value="" style="swimlane;fontStyle=0;childLayout=stackLayout;horizontal=1;startSize=30;horizontalStack=0;resizeParent=1;resizeParentMax=0;resizeLast=0;collapsible=1;marginBottom=0;whiteSpace=wrap;html=1;fillColor=default;" parent="wTs9MbMgU3VnBsxGeB7g-73" vertex="1">
          <mxGeometry x="850" y="490" width="140" height="258.9473684210526" as="geometry" />
        </mxCell>
        <mxCell id="wTs9MbMgU3VnBsxGeB7g-85" value="munge" style="text;strokeColor=none;fillColor=default;align=left;verticalAlign=middle;spacingLeft=4;spacingRight=4;overflow=hidden;points=[[0,0.5],[1,0.5]];portConstraint=eastwest;rotatable=0;whiteSpace=wrap;html=1;fontColor=#ffffff;" parent="wTs9MbMgU3VnBsxGeB7g-84" vertex="1">
          <mxGeometry y="30" width="140" height="30" as="geometry" />
        </mxCell>
        <mxCell id="wTs9MbMgU3VnBsxGeB7g-86" value="slurm" style="text;strokeColor=none;fillColor=default;align=left;verticalAlign=middle;spacingLeft=4;spacingRight=4;overflow=hidden;points=[[0,0.5],[1,0.5]];portConstraint=eastwest;rotatable=0;whiteSpace=wrap;html=1;fontColor=#ffffff;" parent="wTs9MbMgU3VnBsxGeB7g-84" vertex="1">
          <mxGeometry y="60" width="140" height="30" as="geometry" />
        </mxCell>
        <mxCell id="wTs9MbMgU3VnBsxGeB7g-87" value="slurm-perlapi" style="text;strokeColor=none;fillColor=default;align=left;verticalAlign=middle;spacingLeft=4;spacingRight=4;overflow=hidden;points=[[0,0.5],[1,0.5]];portConstraint=eastwest;rotatable=0;whiteSpace=wrap;html=1;fontColor=#ffffff;" parent="wTs9MbMgU3VnBsxGeB7g-84" vertex="1">
          <mxGeometry y="90" width="140" height="30" as="geometry" />
        </mxCell>
        <mxCell id="wTs9MbMgU3VnBsxGeB7g-88" value="slurm-devel" style="text;strokeColor=none;fillColor=default;align=left;verticalAlign=middle;spacingLeft=4;spacingRight=4;overflow=hidden;points=[[0,0.5],[1,0.5]];portConstraint=eastwest;rotatable=0;whiteSpace=wrap;html=1;fontColor=#ffffff;" parent="wTs9MbMgU3VnBsxGeB7g-84" vertex="1">
          <mxGeometry y="120" width="140" height="34.73684210526316" as="geometry" />
        </mxCell>
        <mxCell id="wTs9MbMgU3VnBsxGeB7g-89" value="slurm-slurmd" style="text;strokeColor=none;fillColor=default;align=left;verticalAlign=middle;spacingLeft=4;spacingRight=4;overflow=hidden;points=[[0,0.5],[1,0.5]];portConstraint=eastwest;rotatable=0;whiteSpace=wrap;html=1;fontColor=#ffffff;" parent="wTs9MbMgU3VnBsxGeB7g-84" vertex="1">
          <mxGeometry y="154.73684210526315" width="140" height="34.73684210526316" as="geometry" />
        </mxCell>
        <mxCell id="wTs9MbMgU3VnBsxGeB7g-90" value="slurm-pam_slurm" style="text;strokeColor=none;fillColor=default;align=left;verticalAlign=middle;spacingLeft=4;spacingRight=4;overflow=hidden;points=[[0,0.5],[1,0.5]];portConstraint=eastwest;rotatable=0;whiteSpace=wrap;html=1;fontColor=#ffffff;" parent="wTs9MbMgU3VnBsxGeB7g-84" vertex="1">
          <mxGeometry y="189.4736842105263" width="140" height="34.73684210526316" as="geometry" />
        </mxCell>
        <mxCell id="wTs9MbMgU3VnBsxGeB7g-91" value="slurm-contribs" style="text;strokeColor=none;fillColor=default;align=left;verticalAlign=middle;spacingLeft=4;spacingRight=4;overflow=hidden;points=[[0,0.5],[1,0.5]];portConstraint=eastwest;rotatable=0;whiteSpace=wrap;html=1;fontColor=#ffffff;" parent="wTs9MbMgU3VnBsxGeB7g-84" vertex="1">
          <mxGeometry y="224.21052631578945" width="140" height="34.73684210526316" as="geometry" />
        </mxCell>
        <mxCell id="wTs9MbMgU3VnBsxGeB7g-100" value="&lt;b&gt;Instance: server&lt;/b&gt;" style="swimlane;fontStyle=0;childLayout=stackLayout;horizontal=1;startSize=30;horizontalStack=0;resizeParent=1;resizeParentMax=0;resizeLast=0;collapsible=1;marginBottom=0;whiteSpace=wrap;html=1;" parent="wTs9MbMgU3VnBsxGeB7g-73" vertex="1">
          <mxGeometry x="540" y="200" width="140" height="180" as="geometry" />
        </mxCell>
        <mxCell id="wTs9MbMgU3VnBsxGeB7g-101" value="munge" style="text;strokeColor=none;fillColor=none;align=left;verticalAlign=middle;spacingLeft=4;spacingRight=4;overflow=hidden;points=[[0,0.5],[1,0.5]];portConstraint=eastwest;rotatable=0;whiteSpace=wrap;html=1;" parent="wTs9MbMgU3VnBsxGeB7g-100" vertex="1">
          <mxGeometry y="30" width="140" height="30" as="geometry" />
        </mxCell>
        <mxCell id="wTs9MbMgU3VnBsxGeB7g-102" value="slurm" style="text;strokeColor=none;fillColor=none;align=left;verticalAlign=middle;spacingLeft=4;spacingRight=4;overflow=hidden;points=[[0,0.5],[1,0.5]];portConstraint=eastwest;rotatable=0;whiteSpace=wrap;html=1;" parent="wTs9MbMgU3VnBsxGeB7g-100" vertex="1">
          <mxGeometry y="60" width="140" height="30" as="geometry" />
        </mxCell>
        <mxCell id="wTs9MbMgU3VnBsxGeB7g-103" value="slurm-perlapi" style="text;strokeColor=none;fillColor=none;align=left;verticalAlign=middle;spacingLeft=4;spacingRight=4;overflow=hidden;points=[[0,0.5],[1,0.5]];portConstraint=eastwest;rotatable=0;whiteSpace=wrap;html=1;" parent="wTs9MbMgU3VnBsxGeB7g-100" vertex="1">
          <mxGeometry y="90" width="140" height="30" as="geometry" />
        </mxCell>
        <mxCell id="wTs9MbMgU3VnBsxGeB7g-104" value="slurm-devel" style="text;strokeColor=none;fillColor=none;align=left;verticalAlign=middle;spacingLeft=4;spacingRight=4;overflow=hidden;points=[[0,0.5],[1,0.5]];portConstraint=eastwest;rotatable=0;whiteSpace=wrap;html=1;" parent="wTs9MbMgU3VnBsxGeB7g-100" vertex="1">
          <mxGeometry y="120" width="140" height="30" as="geometry" />
        </mxCell>
        <mxCell id="wTs9MbMgU3VnBsxGeB7g-105" value="slurm-slurmctld" style="text;strokeColor=none;fillColor=none;align=left;verticalAlign=middle;spacingLeft=4;spacingRight=4;overflow=hidden;points=[[0,0.5],[1,0.5]];portConstraint=eastwest;rotatable=0;whiteSpace=wrap;html=1;" parent="wTs9MbMgU3VnBsxGeB7g-100" vertex="1">
          <mxGeometry y="150" width="140" height="30" as="geometry" />
        </mxCell>
        <mxCell id="66KwfRQebHIoKA8WDigY-10" value="&lt;b&gt;Instance: database&lt;/b&gt;" style="swimlane;fontStyle=0;childLayout=stackLayout;horizontal=1;startSize=30;horizontalStack=0;resizeParent=1;resizeParentMax=0;resizeLast=0;collapsible=1;marginBottom=0;whiteSpace=wrap;html=1;" parent="wTs9MbMgU3VnBsxGeB7g-73" vertex="1">
          <mxGeometry x="590" y="548.95" width="140" height="240" as="geometry" />
        </mxCell>
        <mxCell id="66KwfRQebHIoKA8WDigY-11" value="munge" style="text;strokeColor=none;fillColor=none;align=left;verticalAlign=middle;spacingLeft=4;spacingRight=4;overflow=hidden;points=[[0,0.5],[1,0.5]];portConstraint=eastwest;rotatable=0;whiteSpace=wrap;html=1;" parent="66KwfRQebHIoKA8WDigY-10" vertex="1">
          <mxGeometry y="30" width="140" height="30" as="geometry" />
        </mxCell>
        <mxCell id="66KwfRQebHIoKA8WDigY-12" value="slurm" style="text;strokeColor=none;fillColor=none;align=left;verticalAlign=middle;spacingLeft=4;spacingRight=4;overflow=hidden;points=[[0,0.5],[1,0.5]];portConstraint=eastwest;rotatable=0;whiteSpace=wrap;html=1;" parent="66KwfRQebHIoKA8WDigY-10" vertex="1">
          <mxGeometry y="60" width="140" height="30" as="geometry" />
        </mxCell>
        <mxCell id="66KwfRQebHIoKA8WDigY-13" value="slurm-perlapi" style="text;strokeColor=none;fillColor=none;align=left;verticalAlign=middle;spacingLeft=4;spacingRight=4;overflow=hidden;points=[[0,0.5],[1,0.5]];portConstraint=eastwest;rotatable=0;whiteSpace=wrap;html=1;" parent="66KwfRQebHIoKA8WDigY-10" vertex="1">
          <mxGeometry y="90" width="140" height="30" as="geometry" />
        </mxCell>
        <mxCell id="66KwfRQebHIoKA8WDigY-14" value="slurm-devel" style="text;strokeColor=none;fillColor=none;align=left;verticalAlign=middle;spacingLeft=4;spacingRight=4;overflow=hidden;points=[[0,0.5],[1,0.5]];portConstraint=eastwest;rotatable=0;whiteSpace=wrap;html=1;" parent="66KwfRQebHIoKA8WDigY-10" vertex="1">
          <mxGeometry y="120" width="140" height="30" as="geometry" />
        </mxCell>
        <mxCell id="66KwfRQebHIoKA8WDigY-16" value="slurm-slurmdbd" style="text;strokeColor=none;fillColor=none;align=left;verticalAlign=middle;spacingLeft=4;spacingRight=4;overflow=hidden;points=[[0,0.5],[1,0.5]];portConstraint=eastwest;rotatable=0;whiteSpace=wrap;html=1;" parent="66KwfRQebHIoKA8WDigY-10" vertex="1">
          <mxGeometry y="150" width="140" height="30" as="geometry" />
        </mxCell>
        <mxCell id="66KwfRQebHIoKA8WDigY-17" value="mariadb-server" style="text;strokeColor=none;fillColor=none;align=left;verticalAlign=middle;spacingLeft=4;spacingRight=4;overflow=hidden;points=[[0,0.5],[1,0.5]];portConstraint=eastwest;rotatable=0;whiteSpace=wrap;html=1;" parent="66KwfRQebHIoKA8WDigY-10" vertex="1">
          <mxGeometry y="180" width="140" height="30" as="geometry" />
        </mxCell>
        <mxCell id="66KwfRQebHIoKA8WDigY-18" value="python3-PyMySQL" style="text;strokeColor=none;fillColor=none;align=left;verticalAlign=middle;spacingLeft=4;spacingRight=4;overflow=hidden;points=[[0,0.5],[1,0.5]];portConstraint=eastwest;rotatable=0;whiteSpace=wrap;html=1;" parent="66KwfRQebHIoKA8WDigY-10" vertex="1">
          <mxGeometry y="210" width="140" height="30" as="geometry" />
        </mxCell>
        <mxCell id="nZ1ceCBih_SGFWJZSbdT-33" value="" style="swimlane;fontStyle=0;childLayout=stackLayout;horizontal=1;startSize=30;horizontalStack=0;resizeParent=1;resizeParentMax=0;resizeLast=0;collapsible=1;marginBottom=0;whiteSpace=wrap;html=1;fillColor=default;" vertex="1" parent="wTs9MbMgU3VnBsxGeB7g-73">
          <mxGeometry x="860" y="500" width="140" height="258.9473684210526" as="geometry" />
        </mxCell>
        <mxCell id="nZ1ceCBih_SGFWJZSbdT-34" value="munge" style="text;strokeColor=none;fillColor=default;align=left;verticalAlign=middle;spacingLeft=4;spacingRight=4;overflow=hidden;points=[[0,0.5],[1,0.5]];portConstraint=eastwest;rotatable=0;whiteSpace=wrap;html=1;fontColor=#ffffff;" vertex="1" parent="nZ1ceCBih_SGFWJZSbdT-33">
          <mxGeometry y="30" width="140" height="30" as="geometry" />
        </mxCell>
        <mxCell id="nZ1ceCBih_SGFWJZSbdT-35" value="slurm" style="text;strokeColor=none;fillColor=default;align=left;verticalAlign=middle;spacingLeft=4;spacingRight=4;overflow=hidden;points=[[0,0.5],[1,0.5]];portConstraint=eastwest;rotatable=0;whiteSpace=wrap;html=1;fontColor=#ffffff;" vertex="1" parent="nZ1ceCBih_SGFWJZSbdT-33">
          <mxGeometry y="60" width="140" height="30" as="geometry" />
        </mxCell>
        <mxCell id="nZ1ceCBih_SGFWJZSbdT-36" value="slurm-perlapi" style="text;strokeColor=none;fillColor=default;align=left;verticalAlign=middle;spacingLeft=4;spacingRight=4;overflow=hidden;points=[[0,0.5],[1,0.5]];portConstraint=eastwest;rotatable=0;whiteSpace=wrap;html=1;fontColor=#ffffff;" vertex="1" parent="nZ1ceCBih_SGFWJZSbdT-33">
          <mxGeometry y="90" width="140" height="30" as="geometry" />
        </mxCell>
        <mxCell id="nZ1ceCBih_SGFWJZSbdT-37" value="slurm-devel" style="text;strokeColor=none;fillColor=default;align=left;verticalAlign=middle;spacingLeft=4;spacingRight=4;overflow=hidden;points=[[0,0.5],[1,0.5]];portConstraint=eastwest;rotatable=0;whiteSpace=wrap;html=1;fontColor=#ffffff;" vertex="1" parent="nZ1ceCBih_SGFWJZSbdT-33">
          <mxGeometry y="120" width="140" height="34.73684210526316" as="geometry" />
        </mxCell>
        <mxCell id="nZ1ceCBih_SGFWJZSbdT-38" value="slurm-slurmd" style="text;strokeColor=none;fillColor=default;align=left;verticalAlign=middle;spacingLeft=4;spacingRight=4;overflow=hidden;points=[[0,0.5],[1,0.5]];portConstraint=eastwest;rotatable=0;whiteSpace=wrap;html=1;fontColor=#ffffff;" vertex="1" parent="nZ1ceCBih_SGFWJZSbdT-33">
          <mxGeometry y="154.73684210526315" width="140" height="34.73684210526316" as="geometry" />
        </mxCell>
        <mxCell id="nZ1ceCBih_SGFWJZSbdT-39" value="slurm-pam_slurm" style="text;strokeColor=none;fillColor=default;align=left;verticalAlign=middle;spacingLeft=4;spacingRight=4;overflow=hidden;points=[[0,0.5],[1,0.5]];portConstraint=eastwest;rotatable=0;whiteSpace=wrap;html=1;fontColor=#ffffff;" vertex="1" parent="nZ1ceCBih_SGFWJZSbdT-33">
          <mxGeometry y="189.4736842105263" width="140" height="34.73684210526316" as="geometry" />
        </mxCell>
        <mxCell id="nZ1ceCBih_SGFWJZSbdT-40" value="slurm-contribs" style="text;strokeColor=none;fillColor=default;align=left;verticalAlign=middle;spacingLeft=4;spacingRight=4;overflow=hidden;points=[[0,0.5],[1,0.5]];portConstraint=eastwest;rotatable=0;whiteSpace=wrap;html=1;fontColor=#ffffff;" vertex="1" parent="nZ1ceCBih_SGFWJZSbdT-33">
          <mxGeometry y="224.21052631578945" width="140" height="34.73684210526316" as="geometry" />
        </mxCell>
        <mxCell id="nZ1ceCBih_SGFWJZSbdT-41" value="" style="swimlane;fontStyle=0;childLayout=stackLayout;horizontal=1;startSize=30;horizontalStack=0;resizeParent=1;resizeParentMax=0;resizeLast=0;collapsible=1;marginBottom=0;whiteSpace=wrap;html=1;fillColor=default;" vertex="1" parent="wTs9MbMgU3VnBsxGeB7g-73">
          <mxGeometry x="870" y="510" width="140" height="258.9473684210526" as="geometry" />
        </mxCell>
        <mxCell id="nZ1ceCBih_SGFWJZSbdT-42" value="munge" style="text;strokeColor=none;fillColor=default;align=left;verticalAlign=middle;spacingLeft=4;spacingRight=4;overflow=hidden;points=[[0,0.5],[1,0.5]];portConstraint=eastwest;rotatable=0;whiteSpace=wrap;html=1;fontColor=#ffffff;" vertex="1" parent="nZ1ceCBih_SGFWJZSbdT-41">
          <mxGeometry y="30" width="140" height="30" as="geometry" />
        </mxCell>
        <mxCell id="nZ1ceCBih_SGFWJZSbdT-43" value="slurm" style="text;strokeColor=none;fillColor=default;align=left;verticalAlign=middle;spacingLeft=4;spacingRight=4;overflow=hidden;points=[[0,0.5],[1,0.5]];portConstraint=eastwest;rotatable=0;whiteSpace=wrap;html=1;fontColor=#ffffff;" vertex="1" parent="nZ1ceCBih_SGFWJZSbdT-41">
          <mxGeometry y="60" width="140" height="30" as="geometry" />
        </mxCell>
        <mxCell id="nZ1ceCBih_SGFWJZSbdT-44" value="slurm-perlapi" style="text;strokeColor=none;fillColor=default;align=left;verticalAlign=middle;spacingLeft=4;spacingRight=4;overflow=hidden;points=[[0,0.5],[1,0.5]];portConstraint=eastwest;rotatable=0;whiteSpace=wrap;html=1;fontColor=#ffffff;" vertex="1" parent="nZ1ceCBih_SGFWJZSbdT-41">
          <mxGeometry y="90" width="140" height="30" as="geometry" />
        </mxCell>
        <mxCell id="nZ1ceCBih_SGFWJZSbdT-45" value="slurm-devel" style="text;strokeColor=none;fillColor=default;align=left;verticalAlign=middle;spacingLeft=4;spacingRight=4;overflow=hidden;points=[[0,0.5],[1,0.5]];portConstraint=eastwest;rotatable=0;whiteSpace=wrap;html=1;fontColor=#ffffff;" vertex="1" parent="nZ1ceCBih_SGFWJZSbdT-41">
          <mxGeometry y="120" width="140" height="34.73684210526316" as="geometry" />
        </mxCell>
        <mxCell id="nZ1ceCBih_SGFWJZSbdT-46" value="slurm-slurmd" style="text;strokeColor=none;fillColor=default;align=left;verticalAlign=middle;spacingLeft=4;spacingRight=4;overflow=hidden;points=[[0,0.5],[1,0.5]];portConstraint=eastwest;rotatable=0;whiteSpace=wrap;html=1;fontColor=#ffffff;" vertex="1" parent="nZ1ceCBih_SGFWJZSbdT-41">
          <mxGeometry y="154.73684210526315" width="140" height="34.73684210526316" as="geometry" />
        </mxCell>
        <mxCell id="nZ1ceCBih_SGFWJZSbdT-47" value="slurm-pam_slurm" style="text;strokeColor=none;fillColor=default;align=left;verticalAlign=middle;spacingLeft=4;spacingRight=4;overflow=hidden;points=[[0,0.5],[1,0.5]];portConstraint=eastwest;rotatable=0;whiteSpace=wrap;html=1;fontColor=#ffffff;" vertex="1" parent="nZ1ceCBih_SGFWJZSbdT-41">
          <mxGeometry y="189.4736842105263" width="140" height="34.73684210526316" as="geometry" />
        </mxCell>
        <mxCell id="nZ1ceCBih_SGFWJZSbdT-48" value="slurm-contribs" style="text;strokeColor=none;fillColor=default;align=left;verticalAlign=middle;spacingLeft=4;spacingRight=4;overflow=hidden;points=[[0,0.5],[1,0.5]];portConstraint=eastwest;rotatable=0;whiteSpace=wrap;html=1;fontColor=#ffffff;" vertex="1" parent="nZ1ceCBih_SGFWJZSbdT-41">
          <mxGeometry y="224.21052631578945" width="140" height="34.73684210526316" as="geometry" />
        </mxCell>
        <mxCell id="nZ1ceCBih_SGFWJZSbdT-49" value="" style="swimlane;fontStyle=0;childLayout=stackLayout;horizontal=1;startSize=30;horizontalStack=0;resizeParent=1;resizeParentMax=0;resizeLast=0;collapsible=1;marginBottom=0;whiteSpace=wrap;html=1;fillColor=default;" vertex="1" parent="wTs9MbMgU3VnBsxGeB7g-73">
          <mxGeometry x="880" y="520" width="140" height="258.9473684210526" as="geometry" />
        </mxCell>
        <mxCell id="nZ1ceCBih_SGFWJZSbdT-50" value="munge" style="text;strokeColor=none;fillColor=default;align=left;verticalAlign=middle;spacingLeft=4;spacingRight=4;overflow=hidden;points=[[0,0.5],[1,0.5]];portConstraint=eastwest;rotatable=0;whiteSpace=wrap;html=1;fontColor=#ffffff;" vertex="1" parent="nZ1ceCBih_SGFWJZSbdT-49">
          <mxGeometry y="30" width="140" height="30" as="geometry" />
        </mxCell>
        <mxCell id="nZ1ceCBih_SGFWJZSbdT-51" value="slurm" style="text;strokeColor=none;fillColor=default;align=left;verticalAlign=middle;spacingLeft=4;spacingRight=4;overflow=hidden;points=[[0,0.5],[1,0.5]];portConstraint=eastwest;rotatable=0;whiteSpace=wrap;html=1;fontColor=#ffffff;" vertex="1" parent="nZ1ceCBih_SGFWJZSbdT-49">
          <mxGeometry y="60" width="140" height="30" as="geometry" />
        </mxCell>
        <mxCell id="nZ1ceCBih_SGFWJZSbdT-52" value="slurm-perlapi" style="text;strokeColor=none;fillColor=default;align=left;verticalAlign=middle;spacingLeft=4;spacingRight=4;overflow=hidden;points=[[0,0.5],[1,0.5]];portConstraint=eastwest;rotatable=0;whiteSpace=wrap;html=1;fontColor=#ffffff;" vertex="1" parent="nZ1ceCBih_SGFWJZSbdT-49">
          <mxGeometry y="90" width="140" height="30" as="geometry" />
        </mxCell>
        <mxCell id="nZ1ceCBih_SGFWJZSbdT-53" value="slurm-devel" style="text;strokeColor=none;fillColor=default;align=left;verticalAlign=middle;spacingLeft=4;spacingRight=4;overflow=hidden;points=[[0,0.5],[1,0.5]];portConstraint=eastwest;rotatable=0;whiteSpace=wrap;html=1;fontColor=#ffffff;" vertex="1" parent="nZ1ceCBih_SGFWJZSbdT-49">
          <mxGeometry y="120" width="140" height="34.73684210526316" as="geometry" />
        </mxCell>
        <mxCell id="nZ1ceCBih_SGFWJZSbdT-54" value="slurm-slurmd" style="text;strokeColor=none;fillColor=default;align=left;verticalAlign=middle;spacingLeft=4;spacingRight=4;overflow=hidden;points=[[0,0.5],[1,0.5]];portConstraint=eastwest;rotatable=0;whiteSpace=wrap;html=1;fontColor=#ffffff;" vertex="1" parent="nZ1ceCBih_SGFWJZSbdT-49">
          <mxGeometry y="154.73684210526315" width="140" height="34.73684210526316" as="geometry" />
        </mxCell>
        <mxCell id="nZ1ceCBih_SGFWJZSbdT-55" value="slurm-pam_slurm" style="text;strokeColor=none;fillColor=default;align=left;verticalAlign=middle;spacingLeft=4;spacingRight=4;overflow=hidden;points=[[0,0.5],[1,0.5]];portConstraint=eastwest;rotatable=0;whiteSpace=wrap;html=1;fontColor=#ffffff;" vertex="1" parent="nZ1ceCBih_SGFWJZSbdT-49">
          <mxGeometry y="189.4736842105263" width="140" height="34.73684210526316" as="geometry" />
        </mxCell>
        <mxCell id="nZ1ceCBih_SGFWJZSbdT-56" value="slurm-contribs" style="text;strokeColor=none;fillColor=default;align=left;verticalAlign=middle;spacingLeft=4;spacingRight=4;overflow=hidden;points=[[0,0.5],[1,0.5]];portConstraint=eastwest;rotatable=0;whiteSpace=wrap;html=1;fontColor=#ffffff;" vertex="1" parent="nZ1ceCBih_SGFWJZSbdT-49">
          <mxGeometry y="224.21052631578945" width="140" height="34.73684210526316" as="geometry" />
        </mxCell>
        <mxCell id="wTs9MbMgU3VnBsxGeB7g-92" value="&lt;b&gt;Instance: c[1-N]&lt;/b&gt;" style="swimlane;fontStyle=0;childLayout=stackLayout;horizontal=1;startSize=30;horizontalStack=0;resizeParent=1;resizeParentMax=0;resizeLast=0;collapsible=1;marginBottom=0;whiteSpace=wrap;html=1;fillColor=default;" parent="wTs9MbMgU3VnBsxGeB7g-73" vertex="1">
          <mxGeometry x="890" y="530" width="140" height="258.9473684210526" as="geometry" />
        </mxCell>
        <mxCell id="wTs9MbMgU3VnBsxGeB7g-93" value="munge" style="text;strokeColor=none;fillColor=default;align=left;verticalAlign=middle;spacingLeft=4;spacingRight=4;overflow=hidden;points=[[0,0.5],[1,0.5]];portConstraint=eastwest;rotatable=0;whiteSpace=wrap;html=1;" parent="wTs9MbMgU3VnBsxGeB7g-92" vertex="1">
          <mxGeometry y="30" width="140" height="30" as="geometry" />
        </mxCell>
        <mxCell id="wTs9MbMgU3VnBsxGeB7g-94" value="slurm" style="text;strokeColor=none;fillColor=default;align=left;verticalAlign=middle;spacingLeft=4;spacingRight=4;overflow=hidden;points=[[0,0.5],[1,0.5]];portConstraint=eastwest;rotatable=0;whiteSpace=wrap;html=1;" parent="wTs9MbMgU3VnBsxGeB7g-92" vertex="1">
          <mxGeometry y="60" width="140" height="30" as="geometry" />
        </mxCell>
        <mxCell id="wTs9MbMgU3VnBsxGeB7g-95" value="slurm-perlapi" style="text;strokeColor=none;fillColor=default;align=left;verticalAlign=middle;spacingLeft=4;spacingRight=4;overflow=hidden;points=[[0,0.5],[1,0.5]];portConstraint=eastwest;rotatable=0;whiteSpace=wrap;html=1;" parent="wTs9MbMgU3VnBsxGeB7g-92" vertex="1">
          <mxGeometry y="90" width="140" height="30" as="geometry" />
        </mxCell>
        <mxCell id="wTs9MbMgU3VnBsxGeB7g-96" value="slurm-devel" style="text;strokeColor=none;fillColor=default;align=left;verticalAlign=middle;spacingLeft=4;spacingRight=4;overflow=hidden;points=[[0,0.5],[1,0.5]];portConstraint=eastwest;rotatable=0;whiteSpace=wrap;html=1;" parent="wTs9MbMgU3VnBsxGeB7g-92" vertex="1">
          <mxGeometry y="120" width="140" height="34.73684210526316" as="geometry" />
        </mxCell>
        <mxCell id="wTs9MbMgU3VnBsxGeB7g-97" value="slurm-slurmd" style="text;strokeColor=none;fillColor=default;align=left;verticalAlign=middle;spacingLeft=4;spacingRight=4;overflow=hidden;points=[[0,0.5],[1,0.5]];portConstraint=eastwest;rotatable=0;whiteSpace=wrap;html=1;" parent="wTs9MbMgU3VnBsxGeB7g-92" vertex="1">
          <mxGeometry y="154.73684210526315" width="140" height="34.73684210526316" as="geometry" />
        </mxCell>
        <mxCell id="wTs9MbMgU3VnBsxGeB7g-98" value="slurm-pam_slurm" style="text;strokeColor=none;fillColor=default;align=left;verticalAlign=middle;spacingLeft=4;spacingRight=4;overflow=hidden;points=[[0,0.5],[1,0.5]];portConstraint=eastwest;rotatable=0;whiteSpace=wrap;html=1;" parent="wTs9MbMgU3VnBsxGeB7g-92" vertex="1">
          <mxGeometry y="189.4736842105263" width="140" height="34.73684210526316" as="geometry" />
        </mxCell>
        <mxCell id="wTs9MbMgU3VnBsxGeB7g-99" value="slurm-contribs" style="text;strokeColor=none;fillColor=default;align=left;verticalAlign=middle;spacingLeft=4;spacingRight=4;overflow=hidden;points=[[0,0.5],[1,0.5]];portConstraint=eastwest;rotatable=0;whiteSpace=wrap;html=1;" parent="wTs9MbMgU3VnBsxGeB7g-92" vertex="1">
          <mxGeometry y="224.21052631578945" width="140" height="34.73684210526316" as="geometry" />
        </mxCell>
        <mxCell id="wTs9MbMgU3VnBsxGeB7g-113" value="dependancies" style="locked=1;" parent="0" visible="0" />
        <mxCell id="wTs9MbMgU3VnBsxGeB7g-121" value="" style="edgeStyle=segmentEdgeStyle;endArrow=classic;html=1;curved=0;rounded=0;endSize=8;startSize=8;exitX=0;exitY=0.5;exitDx=0;exitDy=0;" parent="wTs9MbMgU3VnBsxGeB7g-113" source="wTs9MbMgU3VnBsxGeB7g-103" edge="1">
          <mxGeometry width="50" height="50" relative="1" as="geometry">
            <mxPoint x="380" y="370" as="sourcePoint" />
            <mxPoint x="450" y="260" as="targetPoint" />
          </mxGeometry>
        </mxCell>
        <mxCell id="wTs9MbMgU3VnBsxGeB7g-123" value="" style="edgeStyle=elbowEdgeStyle;elbow=vertical;endArrow=classic;html=1;curved=0;rounded=0;endSize=8;startSize=8;exitX=0.25;exitY=0;exitDx=0;exitDy=0;" parent="wTs9MbMgU3VnBsxGeB7g-113" source="wTs9MbMgU3VnBsxGeB7g-78" edge="1">
          <mxGeometry width="50" height="50" relative="1" as="geometry">
            <mxPoint x="610" y="600" as="sourcePoint" />
            <mxPoint x="340" y="260" as="targetPoint" />
            <Array as="points">
              <mxPoint x="470" y="580" />
            </Array>
          </mxGeometry>
        </mxCell>
        <mxCell id="GA6Ra2eGG1_OBOdwiRaE-1" value="" style="edgeStyle=segmentEdgeStyle;endArrow=classic;html=1;curved=0;rounded=0;endSize=8;startSize=8;" parent="wTs9MbMgU3VnBsxGeB7g-113" edge="1">
          <mxGeometry width="50" height="50" relative="1" as="geometry">
            <mxPoint x="850" y="510" as="sourcePoint" />
            <mxPoint x="420" y="260" as="targetPoint" />
          </mxGeometry>
        </mxCell>
        <mxCell id="wTs9MbMgU3VnBsxGeB7g-115" value="network connections" style="locked=1;" parent="0" />
        <mxCell id="wTs9MbMgU3VnBsxGeB7g-126" value="" style="edgeStyle=elbowEdgeStyle;elbow=vertical;endArrow=classic;html=1;curved=0;rounded=0;endSize=8;startSize=8;exitX=0.107;exitY=1;exitDx=0;exitDy=0;exitPerimeter=0;entryX=0;entryY=0.5;entryDx=0;entryDy=0;dashed=1;" parent="wTs9MbMgU3VnBsxGeB7g-115" source="wTs9MbMgU3VnBsxGeB7g-77" target="wTs9MbMgU3VnBsxGeB7g-79" edge="1">
          <mxGeometry width="50" height="50" relative="1" as="geometry">
            <mxPoint x="630" y="600" as="sourcePoint" />
            <mxPoint x="680" y="550" as="targetPoint" />
            <Array as="points">
              <mxPoint x="450" y="654" />
            </Array>
          </mxGeometry>
        </mxCell>
        <mxCell id="wTs9MbMgU3VnBsxGeB7g-127" value="" style="edgeStyle=elbowEdgeStyle;elbow=vertical;endArrow=classic;html=1;curved=0;rounded=0;endSize=8;startSize=8;exitX=0.214;exitY=1;exitDx=0;exitDy=0;exitPerimeter=0;dashed=1;" parent="wTs9MbMgU3VnBsxGeB7g-115" edge="1">
          <mxGeometry width="50" height="50" relative="1" as="geometry">
            <mxPoint x="390.00000000000006" y="260" as="sourcePoint" />
            <mxPoint x="850" y="535" as="targetPoint" />
            <Array as="points">
              <mxPoint x="630.04" y="535" />
            </Array>
          </mxGeometry>
        </mxCell>
        <mxCell id="wTs9MbMgU3VnBsxGeB7g-128" value="" style="edgeStyle=elbowEdgeStyle;elbow=vertical;endArrow=classic;html=1;curved=0;rounded=0;endSize=8;startSize=8;exitX=0.55;exitY=1.033;exitDx=0;exitDy=0;exitPerimeter=0;dashed=1;entryX=0;entryY=0.5;entryDx=0;entryDy=0;" parent="wTs9MbMgU3VnBsxGeB7g-115" source="wTs9MbMgU3VnBsxGeB7g-77" target="wTs9MbMgU3VnBsxGeB7g-104" edge="1">
          <mxGeometry width="50" height="50" relative="1" as="geometry">
            <mxPoint x="370" y="290" as="sourcePoint" />
            <mxPoint x="760" y="610" as="targetPoint" />
            <Array as="points">
              <mxPoint x="450" y="335" />
            </Array>
          </mxGeometry>
        </mxCell>
        <mxCell id="wTs9MbMgU3VnBsxGeB7g-130" value="" style="edgeStyle=elbowEdgeStyle;elbow=horizontal;endArrow=classic;html=1;curved=0;rounded=0;endSize=8;startSize=8;entryX=0;entryY=0.5;entryDx=0;entryDy=0;dashed=1;strokeWidth=2;" parent="wTs9MbMgU3VnBsxGeB7g-115" target="wTs9MbMgU3VnBsxGeB7g-103" edge="1">
          <mxGeometry width="50" height="50" relative="1" as="geometry">
            <mxPoint x="200" y="305" as="sourcePoint" />
            <mxPoint x="260" y="410" as="targetPoint" />
            <Array as="points">
              <mxPoint x="240" y="320" />
            </Array>
          </mxGeometry>
        </mxCell>
        <mxCell id="wTs9MbMgU3VnBsxGeB7g-131" value="" style="edgeStyle=elbowEdgeStyle;elbow=vertical;endArrow=none;html=1;curved=0;rounded=0;endSize=8;startSize=8;exitX=0.5;exitY=0;exitDx=0;exitDy=0;startArrow=classic;startFill=1;endFill=0;dashed=1;strokeWidth=2;" parent="wTs9MbMgU3VnBsxGeB7g-115" source="wTs9MbMgU3VnBsxGeB7g-78" edge="1">
          <mxGeometry width="50" height="50" relative="1" as="geometry">
            <mxPoint x="680" y="470" as="sourcePoint" />
            <mxPoint x="560" y="380" as="targetPoint" />
            <Array as="points">
              <mxPoint x="530" y="490" />
            </Array>
          </mxGeometry>
        </mxCell>
        <mxCell id="wTs9MbMgU3VnBsxGeB7g-134" value="" style="edgeStyle=elbowEdgeStyle;elbow=vertical;endArrow=none;html=1;curved=0;rounded=0;endSize=8;startSize=8;startArrow=classic;startFill=1;endFill=0;dashed=1;strokeWidth=2;" parent="wTs9MbMgU3VnBsxGeB7g-115" edge="1">
          <mxGeometry width="50" height="50" relative="1" as="geometry">
            <mxPoint x="850" y="520" as="sourcePoint" />
            <mxPoint x="660" y="380" as="targetPoint" />
            <Array as="points">
              <mxPoint x="760" y="520" />
            </Array>
          </mxGeometry>
        </mxCell>
        <mxCell id="66KwfRQebHIoKA8WDigY-20" value="" style="edgeStyle=elbowEdgeStyle;elbow=vertical;endArrow=classic;html=1;curved=0;rounded=0;endSize=8;startSize=8;exitX=0.214;exitY=1;exitDx=0;exitDy=0;exitPerimeter=0;dashed=1;" parent="wTs9MbMgU3VnBsxGeB7g-115" edge="1">
          <mxGeometry width="50" height="50" relative="1" as="geometry">
            <mxPoint x="370.00000000000006" y="260" as="sourcePoint" />
            <mxPoint x="590" y="570" as="targetPoint" />
            <Array as="points">
              <mxPoint x="440" y="570" />
            </Array>
          </mxGeometry>
        </mxCell>
        <mxCell id="66KwfRQebHIoKA8WDigY-22" value="" style="endArrow=none;html=1;rounded=0;startArrow=classic;startFill=1;endFill=0;dashed=1;startSize=8;endSize=8;strokeWidth=2;" parent="wTs9MbMgU3VnBsxGeB7g-115" edge="1">
          <mxGeometry width="50" height="50" relative="1" as="geometry">
            <mxPoint x="620" y="550" as="sourcePoint" />
            <mxPoint x="620" y="380" as="targetPoint" />
          </mxGeometry>
        </mxCell>
      </root>
    </mxGraphModel>
  </diagram>
</mxfile>
